<svg xmlns="http://www.w3.org/2000/svg" width="184" height="118" viewBox="0 0 184 118">
  <g fill="#fefefe" fill-rule="evenodd" transform="translate(2 2)">
    <path fill-rule="nonzero" d="M23.4210526 62.3726236L23.4210526 62.121673C22.9298246 62.121673 22.6842105 61.7452471 22.6842105 60.9923954L22.6842105 39.473384 25.8421053 39.473384 29.1052632 59.7376426C29.1754386 60.4904943 28.9649123 60.8669202 28.4736842 60.8669202L28.4736842 61.1178707 32 60.4904943 31.8947368 60.2395437C31.4035088 60.2395437 31.122807 59.8631179 31.0526316 59.1102662L27.7894737 39.2224335C28.9122807 38.8878327 29.7105263 38.3022814 30.1842105 37.4657795 30.6578947 36.6292776 30.877193 35.730038 30.8421053 34.7680608 30.8421053 34.1406844 30.754386 33.5342205 30.5789474 32.9486692 30.4035088 32.3631179 30.122807 31.8507605 29.7368421 31.411597 29.3508772 30.9724335 28.8421053 30.6273764 28.2105263 30.3764259 27.5789474 30.1254753 26.7894737 30 25.8421053 30L20 30 20 30.1882129C20.4912281 30.1882129 20.7368421 30.5855513 20.7368421 31.3802281L20.7368421 61.6197719C20.7368421 62.3726236 20.4912281 62.7490494 20 62.7490494L20 63 23.4210526 62.3726236zM25.5771632 37.92L22.5263158 37.92 22.5263158 31.65 25.5771632 31.65C26.3978591 31.65 27.14719 31.84 27.8251561 32.22 28.5031222 32.6 28.8421053 33.4655556 28.8421053 34.8166667 28.8421053 35.45 28.7439786 35.9777778 28.5477252 36.4 28.3514719 36.8222222 28.1016949 37.1388889 27.7983943 37.35 27.4950937 37.5611111 27.14719 37.7088889 26.7546833 37.7933333 26.3621766 37.8777778 25.9696699 37.92 25.5771632 37.92L25.5771632 37.92zM40.9745335 59C43.1592056 59 44.709618 57.9508507 45.6257708 55.2854442 46.5419236 52.6200378 47 48.905482 47 44.1417769 47 39.3402647 46.5419236 35.6162571 45.6257708 32.9697543 44.709618 30.3232514 43.1592056 29 40.9745335 29 38.8250981 29 37.3011132 30.3232514 36.4025787 32.9697543 35.5040442 35.6162571 35.0371586 39.3402647 35.001922 44.1417769 34.9666854 48.905482 35.4159526 52.6200378 36.3497237 55.2854442 37.2834948 57.9508507 38.8250981 59 40.9745335 59zM41.1307464 57.6363636C40.4086006 57.6363636 39.7982154 57.3143939 39.299591 56.6704545 38.8009665 56.0265152 38.3969087 55.1079545 38.0874177 53.9147727 37.7779266 52.7215909 37.5544053 51.3011364 37.4168537 49.6534091 37.2793021 48.0056818 37.2105263 46.1590909 37.2105263 44.1136364 37.2105263 40.0227273 37.5114204 36.7651515 38.1132086 34.3409091 38.7149967 31.9166667 39.7208427 30.7045455 41.1307464 30.7045455 42.575038 30.7045455 43.6066749 31.9166667 44.225657 34.3409091 44.8446391 36.7651515 45.1369362 40.0227273 45.1025483 44.1136364 45.1025483 46.1590909 45.0251756 48.0056818 44.87043 49.6534091 44.7156845 51.3011364 44.4835662 52.7215909 44.1740751 53.9147727 43.8645841 55.1079545 43.4605263 56.0265152 42.9619018 56.6704545 42.4632773 57.3143939 41.8528922 57.6363636 41.1307464 57.6363636zM55.2451923 55.4501018L55.2451923 55.2301426C54.7163462 55.2301426 54.4519231 54.9002037 54.4519231 54.2403259L54.4519231 37.3034623 57.7836538 30.209776C57.9246795 29.9164969 58.0921474 29.6690428 58.2860577 29.4674134 58.4799679 29.2657841 58.7179487 29.1649695 59 29.1649695L59 29 55.4567308 29 55.4567308 29.1649695C56.0208333 29.1649695 56.1266026 29.5132383 55.7740385 30.209776L53.4471154 35.1588595 51.2259615 30.209776C50.8733974 29.5132383 50.9615385 29.1649695 51.4903846 29.1649695L51.4903846 29 48 29 48 29.1649695C48.4583333 29.1649695 48.8637821 29.5132383 49.2163462 30.209776L52.4951923 37.3034623 52.4951923 54.790224C52.4951923 55.4501018 52.2483974 55.7800407 51.7548077 55.7800407L51.7548077 56 55.2451923 55.4501018zM65.1571429 54.4206009L65.1571429 54.1888412C64.6928571 54.1888412 64.4916667 53.8412017 64.5535714 53.1459227L66.225 36.8648069 70.8214286 36.8648069 72.4928571 51.6974249C72.4928571 52.3927039 72.2916667 52.7403433 71.8892857 52.7403433L71.8892857 52.972103 75 52.3927039 75 52.1609442C74.5047619 52.1609442 74.2571429 51.8133047 74.2571429 51.1180258L71.9357143 29.332618C71.9047619 28.6373391 72.0904762 28.2896996 72.4928571 28.2896996L72.4928571 28 64.5535714 28 64.5535714 28.2896996C64.9559524 28.2896996 65.1261905 28.6373391 65.0642857 29.332618L62.8357143 53.7253219C62.7738095 54.4206009 62.4952381 54.7682403 62 54.7682403L62 55 65.1571429 54.4206009zM70.4782609 35.012987L66.2391304 35.012987 66.6999055 29.4025974 70.0174858 29.4025974 70.4782609 35.012987zM85.7836257 50.3743842L87 48.0985222 86.8128655 47.9359606C86.5633528 48.3333333 86.2592593 48.6042693 85.9005848 48.7487685 85.5419103 48.8932677 85.1442495 48.9655172 84.7076023 48.9655172L81.3859649 49.5073892 81.3859649 31.1921182C81.3859649 30.5057471 81.6042885 30.1625616 82.0409357 30.1625616L82.0409357 30 79 30 79 30.1625616C79.4054581 30.1625616 79.6081871 30.5057471 79.6081871 31.1921182L79.6081871 49.7241379C79.6081871 50.3743842 79.4054581 51.7832512 79 51.7832512L79 52 85.7836257 50.3743842z"/>
    <polygon fill-rule="nonzero" points="19 89.825 18.856 80.954 8.061 80.625 8.205 74.218 14.25 74.383 14.394 66.826 8.205 66.497 8.636 60.035 18.28 60.035 17.992 51 0 51.986 0 90"/>
    <path fill-rule="nonzero" d="M30.091213 90L30.2243714 89.7955394C31.5963894 89.7684947 32.8949065 89.5115698 34.1199226 89.0247649 35.3449387 88.53796 36.3862025 87.8686032 37.2437137 87.0166945 38.101225 86.1647859 38.7749839 85.1708924 39.2649903 84.0350142 39.7549968 82.899136 40 82.52051 40 81.2764529 39.9754997 80.0594405 39.7182463 79.0182189 39.2282398 78.1527878 38.7382334 77.2873568 38.1257253 76.6450448 37.3907157 76.2258516 36.655706 75.8066585 35.8410703 75.4618383 34.9468085 75.1913911 34.0525467 74.9209439 33.2072856 74.7316309 32.4110251 74.623452 31.6147647 74.5152731 30.9042553 74.3800495 30.2794971 74.2177812 29.6547389 74.0555129 29.2443585 73.8391552 29.0483559 73.568708 28.7053514 72.9196347 28.6196003 72.2840838 28.7911025 71.6620553 28.9626048 71.0400267 29.2994842 70.5126547 29.8017408 70.0799392 30.3039974 69.6472237 30.7511283 69.471433 31.1431335 69.5525672 31.5351386 69.6337013 31.8168923 69.8973874 31.9883946 70.3436252 32.1598968 70.7898631 32.2211476 71.1820115 32.172147 71.5200705 32.1231464 71.8581295 32.1108962 72.0542037 32.1353965 72.1082931L38.6402321 70.8912808C38.7627337 68.8358821 38.4687299 67.0914978 37.7582205 65.6581276 37.2016185 64.5270621 36.614163 63.9746744 35.8251979 63.5566727 35.0861131 63.1650981 34.1891666 62.8656204 32.4294004 63.0618346 28.7911025 63.4675054 27.0638298 63.4675054 25.5938104 64.4411153 22.8758358 66.2412596 21.6370084 69.6066566 21.4410058 73.3658726 21.3675048 74.5828849 21.6002579 75.0426452 22.139265 75.9621656 22.6782721 76.881686 23.3826564 77.3887745 24.2524178 77.8891018 25.1221792 78.3894291 26.0593166 78.8289058 27.0638298 79.2075319 28.068343 79.586158 28.9993553 79.8768887 29.8568665 80.0797241L29.9782431 80.1089305C30.7799203 80.3051734 31.4315956 80.5320792 31.9332689 80.7896479 32.4600258 81.0600951 32.6744036 81.357587 32.5764023 81.6821237 32.4049001 82.3582417 31.7740168 82.7030618 30.6837524 82.7165842 29.5934881 82.7301065 28.4235977 82.4731817 27.1740812 81.9458097 25.9245648 81.4184377 24.9690522 80.8031703 24.3075435 80.1000076L21 86.1850694C22.5435203 87.4020818 24.1237911 88.314841 25.7408124 88.9233472 27.3578337 89.5318534 28.8523533 89.8225841 30.2243714 89.7955394L30.091213 90zM52.2713823 89C54.7923143 89 57.0640844 88.2206881 59.0866927 86.6620643 61.109301 85.1034404 62.4137367 83.0304707 63 80.4431552L54.6457485 78.1987369 54.5138392 78.5260479C54.4258998 78.7130827 54.2939905 78.9702557 54.1181115 79.2975667 53.9422326 79.6248777 53.7443687 79.9443956 53.52452 80.2561203 53.3046713 80.5678451 53.0335245 80.8483974 52.7110797 81.0977772 52.3886349 81.347157 52.0661901 81.5030194 51.7437453 81.5653643 50.3367135 81.7212267 49.391364 80.2717066 48.9076968 77.2168039 48.4240296 74.1619011 48.4753276 72.9227952 49.0615909 69.7587888 49.6478542 66.5947825 50.5419056 64.9660206 51.7437453 64.8725031 52.3886349 64.8413307 52.9309284 64.9738137 53.3706259 65.2699522 53.8103233 65.5660907 54.1107833 65.9167811 54.2720057 66.3220233 54.433228 66.7272655 54.5504807 67.2026458 54.6237636 67.7481641 54.6970465 68.2936824 54.7263597 68.6677522 54.7117031 68.8703732 54.6970465 69.0729943 54.6750616 69.2522361 54.6457485 69.4080985L62.5603026 65.9011949C62.5016762 65.059538 62.2671709 64.1711224 61.8567866 63.2359481 61.4464023 62.3007738 60.882124 61.3578064 60.1639515 60.4070459 59.8222672 59.9547034 59.5328641 59.7248286 59.2621695 59.5180125 58.9639018 59.29013 58.665254 59.0902713 57.8169796 58.6522899 56.1988484 57.8168159 55.5337469 58.0223514 53.3706259 58.0223514 51.2075049 58.0223514 47.5677247 58.8432535 46.4047741 59.0858968 45.8007326 59.4790452 45.0383592 59.9399258 44.0270551 61.0465488 43.015751 62.1531717 42.6053667 63.0021545 41.9165074 64.4984334 41.227648 65.9947123 40.7293242 67.5845086 40.421536 69.2678223 40.1137478 70.9511361 39.9745103 72.6812085 40.0038235 74.4580397 40.0624498 77.294735 40.4508492 77.9259777 41.1690217 80.0924648 41.8871942 82.2589519 42.839872 83.9734382 44.0270551 85.2359235 45.2142382 86.4984088 46.5040174 87.4413762 47.8963927 88.0648257 49.2887679 88.6882752 50.7470978 89 52.2713823 89zM81.8563565 87.875L92 87.875 83.9179474 53 71.6537069 55.0685433 65 89 73.6783016 89 74.4275012 83.9681133 81.4699769 83.9681133 81.8563565 87.875zM75.2413793 77.1132075L77.0433815 63.1886792 77.6440489 63.1886792 79.8965517 76.9480946 75.2413793 77.1132075zM101.280216 89L101.280216 76.3235272C104.926238 75.8046073 108.02706 74.2849131 110.582682 71.7644449 113.342754 68.9845166 114.807978 65.7227341 114.978352 61.9790974 115.182802 58.1613293 113.939066 55.1404739 111.247144 52.9165313 107.226298 49.6176832 101.143917 49.1172961 93 51.4153701L93 89 101.280216 89zM101.318896 67.1465517L101.208494 67.1453314 101.056338 57.7616777C103.118896 57.5765957 104.564377 58.2799071 105.392781 59.8716116 106.221186 61.4633162 106.221186 63.0827831 105.392781 64.7300122 104.564377 66.3772414 103.169614 67.1823478 101.208494 67.1453314L101.318896 67.1465517z"/>
    <polygon fill-rule="nonzero" points="135.905 88.759 136.073 79.149 124.672 78.834 124.835 72.292 131.219 72.448 131.384 64.732 124.848 64.408 125.314 57.81 135.5 57.791 135.211 48.566 116.207 49.607 115.978 88.411" transform="rotate(-1 126.025 68.663)"/>
    <path fill-rule="nonzero" d="M150.440607,84 L150.622824,83.9975847 C152.500322,83.9597442 154.27724,83.6002602 155.953578,82.9191326 C157.629916,82.2380051 159.054803,81.3014546 160.22824,80.1094813 C161.401676,78.9175081 162.323662,77.5268726 162.994197,75.9375749 C163.664732,74.3482772 164,72.6832986 164,70.9426393 C163.966473,69.2398203 163.614442,67.7829641 162.943907,66.5720706 C162.273372,65.3611771 161.435203,64.4624671 160.4294,63.8759405 C159.423598,63.289414 158.308833,62.8069486 157.085106,62.4285444 C155.86138,62.0501402 154.704707,61.7852573 153.615087,61.6338956 C152.525467,61.4825339 151.553191,61.2933318 150.698259,61.0662893 C149.843327,60.8392467 149.281754,60.5365234 149.01354,60.1581191 C148.544165,59.249949 148.426821,58.3606991 148.661509,57.4903694 C148.896196,56.6200397 149.357189,55.8821515 150.044487,55.2767048 C150.731786,54.671258 151.343649,54.4252953 151.880077,54.5388166 C152.416505,54.6523378 152.802063,55.0212819 153.03675,55.6456489 C153.271438,56.2700158 153.355255,56.8187019 153.288201,57.2917072 C153.221148,57.7647125 153.204384,58.0390555 153.237911,58.1147364 L153.237911,58.1147364 L162.139265,56.4119174 C162.306899,53.5360454 161.904578,51.0953382 160.932302,49.0897959 C159.457124,46.0247217 157.026435,44.340823 153.640232,44.0380996 C150.287556,43.7732167 147.169568,44.8895091 144.286267,47.3869769 C140.765957,50.452051 138.871696,54.6144974 138.603482,59.874316 C138.502901,61.5771349 138.821406,63.0718316 139.558994,64.3584059 C140.296583,65.6449803 141.260477,66.6382913 142.450677,67.3383391 C143.640877,68.0383869 144.923275,68.6532938 146.297872,69.1830597 C147.672469,69.7128256 148.946486,70.1196101 150.119923,70.4034132 L150.286017,70.4442783 C151.383049,70.7188574 152.274815,71.0363393 152.961315,71.3967243 C153.682141,71.7751285 153.9755,72.1913732 153.841393,72.6454582 C153.606705,73.5914688 152.743391,74.0739341 151.251451,74.0928543 C149.75951,74.1117746 148.158607,73.7522905 146.448743,73.0144023 C144.738878,72.2765141 143.431335,71.4156445 142.526112,70.4317936 L142.526112,70.4317936 L138,78.9458884 C140.112186,80.6487074 142.274662,81.9258216 144.487427,82.7772311 C146.700193,83.6286405 148.745326,84.0354251 150.622824,83.9975847 L150.440607,84 Z"/>
    <path d="M142.453352,100.215813 C142.453352,100.215813 143.563037,98.1424679 145.035876,98.1708242 C145.585383,98.1814071 146.023213,98.658921 146.014055,99.2376269 C146.004908,99.8157229 145.601783,100.276435 145.233141,100.269337 C145.606967,100.276534 145.990077,100.752995 145.980921,101.331701 C145.971772,101.909797 145.519101,102.370164 144.969594,102.359585 C143.496755,102.331225 142.453352,100.215813 142.453352,100.215813 Z M151.259343,99.1331377 C151.763478,98.554449 151.921955,97.0375306 151.077965,96.3835915 C150.234537,95.7302872 149.284637,96.0558 149.004351,96.7361368 C148.344719,95.4249723 149.298974,93.8840666 151.112949,93.9196104 C151.664964,96.2095773 153.173883,97.333683 154.655858,97.4845141 C152.965378,98.2512592 151.793971,100.496804 151.793971,100.496804 C151.793971,100.496804 152.8936,102.787324 154.558792,103.618681 C153.072968,103.711121 151.528822,104.777065 150.905265,107.04439 C149.09127,107.010086 148.186348,105.433383 148.887061,104.148411 C149.145641,104.839748 150.084665,105.201631 150.948258,104.58057 C151.812413,103.960145 151.702034,102.437425 151.216505,101.840305 C150.731568,101.241948 149.209246,100.820165 147.801755,101.67597 C147.47356,101.876182 147.19688,102.184083 146.978587,102.562992 L147.046871,98.2477426 C147.253042,98.6348246 147.519813,98.9531897 147.841483,99.1652905 C149.221041,100.074759 150.75578,99.7118375 151.259343,99.1331377 Z M155.828236,88.6151106 C160.121611,86.4779302 161.104593,89.8517056 161.104593,89.8517056 C161.104593,89.8517056 159.853621,89.4226592 159.171589,90.4795119 C158.678875,91.2434111 158.473585,92.5100654 159.832813,93.5573045 C160.389669,93.9866085 161.242019,93.908901 162.002873,93.438714 C161.807215,94.4535377 162.025324,95.3035702 162.413641,95.9618307 C162.332416,95.9553132 162.251805,95.9457114 162.169372,95.9441242 C159.780523,95.8981281 157.810336,97.9834446 157.768883,100.603119 C157.72744,103.222174 159.630442,105.382686 162.01929,105.428682 C162.101723,105.430269 162.182599,105.423157 162.26398,105.419771 C161.855074,106.062681 161.610205,106.903799 161.773637,107.925537 C161.028122,107.426346 160.178759,107.315253 159.60866,107.722859 C158.217108,108.718371 158.382208,109.991538 158.850454,110.77394 C159.498624,111.857024 160.762418,111.475779 160.762418,111.475779 C160.762418,111.475779 159.673286,114.810276 155.450142,112.509115 C152.568657,110.937821 153.13715,107.240972 154.270972,106.614496 C154.798364,108.798677 157.074392,108.015244 157.363409,106.561344 C157.495299,105.900097 157.548699,104.452806 156.226595,103.84344 C156.896741,103.68049 157.404463,103.038863 157.416835,102.257046 C157.431351,101.339665 156.845762,100.584725 156.273816,100.573713 C156.837857,100.584573 157.45486,99.8540273 157.469386,98.9360271 C157.481757,98.1542103 156.994634,97.4940474 156.330051,97.3053972 C157.670639,96.7466807 157.663071,95.297597 157.552162,94.632913 C157.30932,93.1687728 155.059464,92.2981961 154.46331,94.4595052 C153.349999,93.7897621 152.898823,90.0726607 155.828236,88.6151106 Z M164.423232,90.0111079 C164.181546,90.105647 163.95049,90.2471367 163.733292,90.4327888 C163.748034,90.2198655 163.752852,90.0016205 163.733739,89.7720833 C163.721977,89.6242081 163.700309,89.4698713 163.674566,89.3143159 C163.827734,89.6678597 164.097454,89.9290156 164.423232,90.0111079 Z M161.92109,103.571003 C160.453163,103.542735 159.283756,102.206942 159.309374,100.587688 C159.335001,98.9684342 160.545957,97.6784746 162.013885,97.7067348 C163.481812,97.735003 164.651219,99.0707952 164.6256,100.690049 C164.599973,102.309303 163.389017,103.599263 161.92109,103.571003 Z M168.715293,93.6474087 C169.647966,94.7390565 170.209168,96.8119112 169.30719,97.9032253 C168.603338,96.9252553 167.702557,97.0368277 167.151886,97.7340374 C166.664301,98.3502008 166.724598,100.145142 168.070045,100.755469 C166.706118,101.313014 166.589069,103.104541 167.056863,103.739099 C167.58515,104.45647 168.481843,104.603266 169.216226,103.65176 C170.083099,104.778975 169.456677,106.827734 168.490035,107.882812 C167.361489,109.115869 165.509829,109.611843 164.456709,108.8991 C163.738756,108.414424 163.467332,107.015059 164.196617,106.385747 C164.48926,106.841975 165.682685,107.186631 166.065929,105.714541 C166.282254,104.881977 165.857687,104.264212 165.2294,104.007787 C166.026594,103.173516 166.529056,102.014962 166.549449,100.726191 C166.569862,99.4361915 166.103769,98.2602165 165.334028,97.3957749 C165.970044,97.1636937 166.413917,96.561422 166.224054,95.7216512 C165.887618,94.2357038 164.684016,94.5342062 164.377117,94.9788906 C163.668186,94.3218862 163.983718,92.9338225 164.716577,92.4764676 C165.791586,91.8059287 167.626436,92.3722707 168.715293,93.6474087 Z M171.867056,99.985236 C171.910803,99.9860783 171.952302,99.9794941 171.993782,99.97414 C171.663643,100.432932 171.476683,100.775118 171.476683,100.775118 C171.476683,100.775118 171.653294,101.124304 171.969298,101.596153 C171.926831,101.589182 171.885556,101.58162 171.841809,101.580777 C171.511935,101.574426 171.223478,101.753455 171.060703,102.024734 C170.757769,101.474381 170.308151,101.000575 169.703747,100.741596 C170.315986,100.505428 170.780311,100.049835 171.100472,99.5114795 C171.254575,99.7882448 171.537182,99.9788845 171.867056,99.985236 Z M164.077493,111.294656 C163.748809,111.363538 163.471311,111.614597 163.307235,111.962424 C163.337858,111.807463 163.364356,111.654702 163.380772,111.507444 C163.407115,111.278329 163.409214,111.059573 163.40122,110.846891 C163.612602,111.041268 163.838769,111.191487 164.077493,111.294656 Z M87.6908488,100.723397 L132.923437,101.979931 L132.915673,102.470592 C132.902022,103.333307 133.421922,104.050185 134.070709,104.062677 C134.123649,104.063696 134.17395,104.053425 134.225348,104.045048 C134.064131,104.514021 133.995177,104.991016 134.019653,105.437963 C134.122545,107.337621 135.294206,107.950278 136.312372,107.903067 C137.316429,107.857457 138.122597,106.717763 138.028661,105.711853 C137.928034,104.630256 136.721931,104.378488 136.199595,104.776815 C136.267576,103.25761 137.865485,102.99364 139.28443,102.824887 C140.703948,102.65552 142.594519,103.477469 143.249978,104.029607 C143.904873,104.581734 144.068516,105.419138 143.652496,106.539493 C143.236465,107.660473 141.90594,107.830929 141.342783,107.035163 C142.318335,106.939674 142.395368,105.59611 142.345766,105.206129 C142.267175,104.583296 141.43706,103.889794 140.566062,103.928599 C139.029836,103.997057 138.616003,105.940468 139.008448,107.235622 C139.457113,108.716069 141.1068,109.843727 143.108303,109.24471 C144.570375,108.807029 145.233936,106.960219 145.486387,105.994698 C145.562743,106.011155 145.639662,106.027623 145.719071,106.029151 C146.160044,106.037642 146.562452,105.813098 146.854387,105.449674 C146.939332,106.133824 147.141774,106.83335 147.489093,107.49133 C148.368051,109.156779 150.09329,109.319256 150.961926,109.287275 C151.15023,112.446827 153.383669,115.667613 157.196729,115.970826 C160.771256,116.25321 162.455711,114.436048 163.087063,112.666674 C163.084277,112.70034 163.077015,112.732047 163.076471,112.76638 C163.063176,113.606622 163.666269,114.2995 164.424314,114.314096 C165.181796,114.328681 165.807006,113.659453 165.820302,112.819211 C165.829113,112.262379 165.563041,111.774563 165.16399,111.502117 C167.065595,111.66237 169.208454,110.389806 170.174259,109.023391 C171.654663,106.928795 171.760819,104.670361 171.595139,103.427655 C171.684133,103.464338 171.777829,103.488621 171.877512,103.490541 C172.341575,103.499476 172.723659,103.099697 172.751431,102.590688 C173.422057,103.394768 174.336611,104.16358 175.401028,104.184074 C176.240171,104.200232 176.931787,103.464219 176.946419,102.539703 C176.961056,101.614563 176.377071,100.853365 175.806566,100.84238 C176.368624,100.853202 176.984763,100.11636 176.999412,99.1905959 C177.014042,98.26608 176.346123,97.5045144 175.50698,97.4883572 C174.442563,97.4678624 173.504242,98.2009984 172.808605,98.9775225 C172.796934,98.4690025 172.427741,98.0541337 171.963678,98.0451984 C171.863995,98.0432791 171.769577,98.0645655 171.679488,98.0971751 C171.884383,96.8616043 171.849734,94.6010841 170.436511,92.4501483 C169.514505,91.0486336 167.414359,89.693123 165.508852,89.7794484 C165.915717,89.5225193 166.196487,89.0458567 166.205298,88.4890247 C166.218584,87.649407 165.614927,86.9565184 164.857446,86.9419335 C164.099401,86.9273377 163.474754,87.5965759 163.461468,88.4361937 C163.460924,88.4705275 163.467169,88.5031186 163.468888,88.5368716 C162.89391,86.7436452 161.267983,84.8621192 157.68668,85.0079709 C153.865816,85.1623232 151.531818,88.2964139 151.244221,91.4474272 C150.377125,91.3820253 148.647797,91.4779873 147.716693,93.1079599 C147.348768,93.752168 147.124308,94.4440982 147.01778,95.1239369 C146.73752,94.7494959 146.342461,94.5095971 145.901488,94.5011064 C145.822079,94.4995774 145.744676,94.5136981 145.667856,94.5265811 C145.446097,93.5525539 144.841369,91.681324 143.394035,91.1876231 C141.412713,90.5112947 139.728354,91.5747577 139.233113,93.0376547 C138.799941,94.3162877 139.152037,96.2744462 140.685162,96.402003 C141.554401,96.4743151 142.405952,95.8131924 142.5042,95.1937651 C142.566109,94.8059302 142.531622,93.460844 141.559695,93.3272328 C142.147685,92.5536316 143.471997,92.7758295 143.852308,93.9121421 C144.232639,95.0472062 144.042603,95.8778007 143.370638,96.4043796 C142.6981,96.931572 140.782686,97.6796144 139.369381,97.4563274 C137.956639,97.2330512 136.368056,96.9077275 136.34819,95.386206 C136.857596,95.8050234 138.07094,95.5992158 138.205714,94.5227762 C138.331429,93.5204707 137.5618,92.35106 136.559807,92.2662008 C135.543744,92.1804462 134.353424,92.7469998 134.190493,94.6415398 C134.151892,95.087272 134.205703,95.5672546 134.351984,96.0421488 C134.300882,96.0317983 134.250947,96.0189724 134.198007,96.0179531 C133.54922,96.005461 133.006956,96.7018875 132.993295,97.5652268 L132.98554,98.0552639 L74.80142,96.5493556 C73.8276757,96.5306067 73.0173567,97.3985889 73.0002747,98.477919 C72.9832084,99.5566249 73.7655725,100.455273 74.7393169,100.474022 L77.24661,100.522299 L77.0759374,111.30811 L75.8374968,111.284264 L75.7940335,114.030969 L79.5110449,114.102538 L79.7251808,100.570023 L81.2300072,100.598997 L81.0417418,112.496599 L83.5197494,112.544312 L83.7080148,100.64671 L85.2128412,100.675685 L84.9987053,114.2082 L88.7157167,114.279769 L88.75918,111.533064 L87.5201762,111.509208 L87.6908488,100.723397 Z"/>
    <g transform="translate(37)">
      <path d="M26.2903954,13.7144705 C25.7419385,15.0217532 25.2077565,16.3356896 24.6888512,17.6591312 C24.5749024,17.944921 24.4622058,18.232612 24.3510118,18.5203029 C24.2132715,18.847282 24.058251,19.1685579 23.8791886,19.4720909 C23.5471092,20.0560274 23.11969,20.5582191 22.6616408,20.972963 C22.5960264,21.0337963 21.1275287,20.972963 20.4615385,20.972963 C16.545682,20.972963 17.5611648,20.972963 9.478664,20.972963 C8.15838475,20.972963 6.58709953,20.972963 4.73602437,20.972963 C4.5850109,20.3826896 3.87629027,18.5896909 3.71926631,18.0029028 C3.15352929,15.8762713 2.55373285,13.7619965 1.91987698,11.6588112 C1.79415764,11.2408989 1.66718612,10.8210857 1.53846154,10.4028566 C1.70174642,10.3661031 1.86503129,10.3312507 2.02981879,10.2963983 C2.03557884,10.298933 2.14802502,10.7526482 2.35037806,11.4275178 C2.95292931,13.4540278 4.35337261,17.4721954 6.05859766,17.2526252 C8.06359571,17.0412927 8.25943739,12.2776001 8.22437622,9.89306066 C8.21285612,9.0936728 8.17554102,8.56201492 8.17128359,8.557896 C8.39767857,8.54395503 8.62382312,8.53223194 8.84996766,8.52431094 C8.84971723,8.52811302 8.86549475,9.02650268 8.91858738,9.77868135 C9.08763231,12.1610029 9.64385273,17.0929377 11.3220306,16.9826773 C13.4940701,16.9031504 14.040273,9.79769176 14.1597314,6.33462822 C14.1982987,5.22030118 14.1922882,4.48206348 14.1825212,4.47540984 L14.7930864,4.52768847 C14.7843211,4.53275791 14.7071865,5.26592617 14.6395686,6.37771848 C14.4271981,9.83476207 14.2917117,16.9715879 16.436704,17.4240357 C18.1126279,17.828007 19.1406715,12.8970227 19.5230887,10.6069017 C19.6372879,9.92220996 19.6953893,9.4694453 19.6956397,9.46152429 C19.9190295,9.51000085 20.1436714,9.56069528 20.3670611,9.61297392 C20.3580454,9.61614232 20.2516097,10.0806301 20.1316504,10.7963721 C19.7622559,13.0190062 19.2719004,17.667369 21.2235554,18.4806978 C23.1526711,19.346939 25.0612509,15.3778816 25.8774249,13.4267796 C26.1353749,12.8127432 26.2843849,12.3992668 26.2921484,12.3957815 C26.450675,12.4585159 26.6092016,12.5209334 26.7692308,12.5855688 C26.6087007,12.9613413 26.4496732,13.336797 26.2903954,13.7144705 Z"/>
      <path d="M21.5355853 9.22162947C21.4867512 10.0756482 20.8288158 10.7235382 20.0656411 10.6689161 19.3024664 10.614294 18.7232712 9.87789222 18.7721053 9.0238735 18.8205609 8.17025347 19.4788748 7.52236344 20.2420495 7.57698556 21.0056028 7.63160767 21.5844194 8.36761074 21.5355853 9.22162947M27.9971237 12.3199901C27.9482896 13.1740089 27.2903543 13.8218989 26.5271795 13.7672768 25.7640048 13.7126547 25.1848097 12.9762529 25.2336438 12.1222342 25.2820993 11.2686141 25.9404133 10.6207241 26.703588 10.6753462 27.4671413 10.7299683 28.0459578 11.4659714 27.9971237 12.3199901M9.53558697 7.50031799C9.48675284 8.35433672 8.82843852 9.00222674 8.06564188 8.94760463 7.30246668 8.89298252 6.72327121 8.15658075 6.77210534 7.30256202 6.82056091 6.44894199 7.47887523 5.80105197 8.24205043 5.85567408 9.00522563 5.91029619 9.5844211 6.64629926 9.53558697 7.50031799M2.76635655 9.22162947C2.71752834 10.0756482 2.0592938 10.7235382 1.29658961 10.6689161.533506912 10.614294-.0456183536 9.87789222.0028313418 9.0238735.0516595505 8.17025347.709894084 7.52236344 1.47297679 7.57698556 2.23605949 7.63160767 2.81518476 8.36800944 2.76635655 9.22162947M16.9176882 3.11288113C16.8258322 4.72571301 15.5822786 5.94908822 14.1410247 5.84644454 12.6993045 5.74330973 11.6054249 4.35246324 11.6977472 2.73963136 11.7900696 1.12679949 13.0331569-.0970668467 14.4744108.00606795668 15.916131.10920276 17.0095442 1.50004925 16.9176882 3.11288113"/>
    </g>
  </g>
</svg>
