<svg width="195" height="45" viewBox="0 0 195 45" fill="none" xmlns="http://www.w3.org/2000/svg">
<path d="M22.5 0L27.5516 15.5471H43.8988L30.6736 25.1558L35.7252 40.7029L22.5 31.0942L9.27483 40.7029L14.3264 25.1558L1.10123 15.5471H17.4484L22.5 0Z" fill="#A02929"/>
<path d="M122.5 0L127.552 15.5471H143.899L130.674 25.1558L135.725 40.7029L122.5 31.0942L109.275 40.7029L114.326 25.1558L101.101 15.5471H117.448L122.5 0Z" fill="#A02929"/>
<path d="M72.5 0L77.5516 15.5471H93.8988L80.6736 25.1558L85.7252 40.7029L72.5 31.0942L59.2748 40.7029L64.3264 25.1558L51.1012 15.5471H67.4484L72.5 0Z" fill="#A02929"/>
<path d="M172.5 0L177.552 15.5471H193.899L180.674 25.1558L185.725 40.7029L172.5 31.0942L159.275 40.7029L164.326 25.1558L151.101 15.5471H167.448L172.5 0Z" fill="#A02929"/>
</svg>
